<mxfile host="app.diagrams.net" modified="2023-10-16T04:36:55.776Z" agent="Mozilla/5.0 (Windows NT 10.0; Win64; x64) AppleWebKit/537.36 (KHTML, like Gecko) Chrome/118.0.0.0 Safari/537.36" version="21.8.2" etag="YVHd3oYXwk4E81Dw7sXQ" type="github">
  <diagram name="Page-1" id="XXN-123ilcZ6LDydw7hf">
    <mxGraphModel>
      <root>
        <mxCell id="0" />
        <mxCell id="1" parent="0" />
      </root>
    </mxGraphModel>
  </diagram>
</mxfile>
